<svg width="146" height="15" viewBox="0 0 146 15" fill="none" xmlns="http://www.w3.org/2000/svg">
<path d="M2.72 8.62C2.72 9.59333 2.93333 10.3933 3.36 11.02C3.78667 11.6333 4.48667 11.94 5.46 11.94C5.86 11.94 6.27333 11.8867 6.7 11.78C7.14 11.6733 7.68 11.4933 8.32 11.24L9.06 13.32C8.34 13.64 7.67333 13.8667 7.06 14C6.46 14.1333 5.88 14.2 5.32 14.2C4.2 14.2 3.26 13.96 2.5 13.48C1.75333 13 1.19333 12.34 0.82 11.5C0.446667 10.66 0.26 9.7 0.26 8.62V5.76C0.26 4.68 0.446667 3.72 0.82 2.88C1.19333 2.04 1.75333 1.38667 2.5 0.919999C3.26 0.439999 4.2 0.199999 5.32 0.199999C5.86667 0.199999 6.43333 0.266666 7.02 0.4C7.60667 0.52 8.24667 0.733333 8.94 1.04L8.2 3.16C7.58667 2.90667 7.07333 2.72667 6.66 2.62C6.24667 2.51333 5.84667 2.46 5.46 2.46C4.48667 2.46 3.78667 2.76667 3.36 3.38C2.93333 3.99333 2.72 4.78667 2.72 5.76V8.62ZM21.0859 5.76V8.62C21.0859 10.3533 20.6526 11.72 19.7859 12.72C18.9193 13.7067 17.6526 14.2 15.9859 14.2C14.3059 14.2 13.0326 13.7067 12.1659 12.72C11.3126 11.72 10.8859 10.3533 10.8859 8.62V5.76C10.8859 4.02667 11.3126 2.66667 12.1659 1.68C13.0326 0.693332 14.3059 0.199999 15.9859 0.199999C17.6526 0.199999 18.9193 0.693332 19.7859 1.68C20.6526 2.66667 21.0859 4.02667 21.0859 5.76ZM18.6259 5.76C18.6259 4.66667 18.4126 3.84667 17.9859 3.3C17.5593 2.74 16.8926 2.46 15.9859 2.46C15.0793 2.46 14.4126 2.74 13.9859 3.3C13.5593 3.84667 13.3459 4.66667 13.3459 5.76V8.62C13.3459 9.71333 13.5593 10.54 13.9859 11.1C14.4126 11.66 15.0793 11.94 15.9859 11.94C16.8926 11.94 17.5593 11.66 17.9859 11.1C18.4126 10.54 18.6259 9.71333 18.6259 8.62V5.76ZM26.8789 0.4L30.6789 9.7L34.4589 0.4H37.0789V14H34.7789V8.8L35.0789 4.04L31.6989 12.4H29.5589L26.2589 4.02L26.5589 8.8V14H24.2589V0.4H26.8789ZM40.8409 14V0.4H45.3209C46.7476 0.4 47.8143 0.76 48.5209 1.48C49.2409 2.2 49.6009 3.16 49.6009 4.36V5.42C49.6009 6.62 49.2409 7.58667 48.5209 8.32C47.8143 9.04 46.7476 9.4 45.3209 9.4H43.2409V14H40.8409ZM45.3209 2.7H43.2409V7.1H45.3209C45.9076 7.1 46.3543 6.95333 46.6609 6.66C46.9809 6.36667 47.1409 5.95333 47.1409 5.42V4.36C47.1409 3.84 46.9809 3.43333 46.6609 3.14C46.3543 2.84667 45.9076 2.7 45.3209 2.7ZM54.7253 9V14H52.3253V0.4H56.8653C58.2386 0.4 59.292 0.753333 60.0253 1.46C60.772 2.15333 61.1453 3.08667 61.1453 4.26V5.12C61.1453 5.89333 60.9786 6.57333 60.6453 7.16C60.312 7.74667 59.832 8.19333 59.2053 8.5C60.2986 10.3667 61.232 12.2 62.0053 14H59.2653C58.5986 12.3333 57.8053 10.6667 56.8853 9H54.7253ZM56.8653 2.6H54.7253V6.8H56.8653C57.452 6.8 57.8986 6.65333 58.2053 6.36C58.5253 6.05333 58.6853 5.64 58.6853 5.12V4.26C58.6853 3.75333 58.5253 3.35333 58.2053 3.06C57.8986 2.75333 57.452 2.6 56.8653 2.6ZM71.7528 14L70.9128 11.34H66.2528L65.4128 14H63.0328L67.5728 0.4H69.6928L74.2528 14H71.7528ZM67.5528 7.18L66.9328 9.14H70.2128L69.5928 7.18L68.5928 3.74L67.5528 7.18ZM79.3845 12.08C79.9179 12.08 80.3579 11.9533 80.7045 11.7C81.0512 11.4467 81.2645 11.1067 81.3445 10.68C81.4245 10.24 81.3245 9.75333 81.0445 9.22L82.8845 8.1L85.9245 14H83.4245L82.5445 12.02C82.3579 12.66 81.9712 13.1867 81.3845 13.6C80.8112 14 80.0712 14.2 79.1645 14.2C77.9779 14.2 77.0445 13.8667 76.3645 13.2C75.6979 12.5333 75.3645 11.6733 75.3645 10.62C75.3645 9.87333 75.5579 9.17333 75.9445 8.52C76.3445 7.86667 77.0179 7.23333 77.9645 6.62C77.3112 6.11333 76.8379 5.60667 76.5445 5.1C76.2512 4.58 76.1045 4.02667 76.1045 3.44C76.1045 2.84 76.2445 2.29333 76.5245 1.8C76.8045 1.30667 77.2112 0.92 77.7445 0.639999C78.2912 0.346666 78.9579 0.199999 79.7445 0.199999C80.8779 0.199999 81.7779 0.493332 82.4445 1.08C83.1112 1.66667 83.4445 2.48 83.4445 3.52C83.4445 4.14667 83.3179 4.68667 83.0645 5.14C82.8245 5.59333 82.4912 6.00667 82.0645 6.38C81.6379 6.74 81.1379 7.1 80.5645 7.46L79.1645 8.36C78.5645 8.74667 78.1712 9.12 77.9845 9.48C77.7979 9.84 77.7045 10.1867 77.7045 10.52C77.7045 11.0533 77.8579 11.4467 78.1645 11.7C78.4845 11.9533 78.8912 12.08 79.3845 12.08ZM78.3245 3.56C78.3245 3.85333 78.4045 4.18 78.5645 4.54C78.7379 4.9 79.0312 5.26667 79.4445 5.64C79.9112 5.33333 80.2645 5.08 80.5045 4.88C80.7445 4.66667 80.9112 4.46667 81.0045 4.28C81.0979 4.09333 81.1445 3.88667 81.1445 3.66C81.1445 3.18 81.0112 2.83333 80.7445 2.62C80.4779 2.39333 80.1512 2.28 79.7645 2.28C79.3645 2.28 79.0245 2.38667 78.7445 2.6C78.4645 2.81333 78.3245 3.13333 78.3245 3.56ZM96.357 0.4L92.037 14H89.577L85.237 0.4H87.877L89.937 7.24L90.877 10.76L91.877 7.22L93.917 0.4H96.357ZM106.397 11.7V14H98.5167V0.4H106.197V2.7H100.917V5.96H105.597V8.26H100.917V11.7H106.397ZM109.239 14V0.4H111.439C112.493 1.77333 113.493 3.22667 114.439 4.76C115.386 6.28 116.246 7.84667 117.019 9.46L116.839 5.4V0.4H119.139V14H116.939C116.086 12.32 115.199 10.6333 114.279 8.94C113.373 7.23333 112.406 5.62667 111.379 4.12L111.539 8.8V14H109.239ZM122.892 14V0.4H127.492C129.118 0.4 130.358 0.853333 131.212 1.76C132.065 2.66667 132.492 4 132.492 5.76V8.62C132.492 10.3933 132.065 11.7333 131.212 12.64C130.358 13.5467 129.118 14 127.492 14H122.892ZM127.392 2.7H125.292V11.7H127.392C128.338 11.7 129.012 11.4667 129.412 11C129.825 10.5333 130.032 9.74 130.032 8.62V5.76C130.032 4.65333 129.825 3.86667 129.412 3.4C129.012 2.93333 128.338 2.7 127.392 2.7ZM142.515 14L141.675 11.34H137.015L136.175 14H133.795L138.335 0.4H140.455L145.015 14H142.515ZM138.315 7.18L137.695 9.14H140.975L140.355 7.18L139.355 3.74L138.315 7.18Z" fill="black"/>
</svg>
